<svg width="20" height="20" viewBox="0 0 145 146" fill="none" xmlns="http://www.w3.org/2000/svg">
<path d="M14.2075 73.0015C14.2075 104.941 40.1015 130.835 72.0405 130.835C103.981 130.835 129.876 104.942 129.876 73.0015C129.876 41.0605 103.981 15.1655 72.0405 15.1655C40.1015 15.1665 14.2075 41.0605 14.2075 73.0015ZM40.2915 96.9995C40.2915 93.0655 43.2015 89.8745 46.7915 89.8745C50.3815 89.8745 53.2915 93.0655 53.2915 96.9995C53.2915 100.936 50.3815 104.125 46.7915 104.125C43.2015 104.125 40.2915 100.936 40.2915 96.9995ZM95.8865 89.8205V103.899L59.1515 103.899L59.1515 89.8205L95.8865 89.8205ZM95.8865 41.9825L95.8865 56.1285L75.6865 56.1285C73.3805 56.1285 71.7485 56.5565 70.7905 57.4095C69.8345 58.2635 69.3545 59.4625 69.3545 61.0055C69.3545 62.7125 70.0005 64.0975 71.2925 65.1575C72.5845 66.2185 74.9015 66.7475 78.2455 66.7475L95.8865 66.7475V80.8265L59.1515 80.8265V67.7175H65.1345C62.6915 65.7585 60.9445 63.7745 59.8945 61.7685C58.8455 59.7625 58.3215 57.3195 58.3215 54.4365C58.3215 50.5385 59.4795 47.4895 61.7975 45.2865C64.1145 43.0855 67.6945 41.9835 72.5375 41.9835L95.8865 41.9825Z" fill="#1c1d1f"/>
</svg>
