<svg width="20" height="20" viewBox="0 0 26 26" fill="none" xmlns="http://www.w3.org/2000/svg">
<path d="M12.9996 0.951263C6.34948 0.951263 0.958008 6.34585 0.958008 12.9998C0.958008 19.654 6.34928 25.0488 12.9996 25.0488C19.6502 25.0488 25.0418 19.654 25.0418 12.9998C25.0416 6.34585 19.6502 0.951263 12.9996 0.951263ZM8.00291 6.38543C8.82202 6.38543 9.48643 6.99168 9.48643 7.7396C9.48643 8.48751 8.82202 9.09376 8.00291 9.09376C7.18338 9.09376 6.51939 8.48751 6.51939 7.7396C6.51939 6.99168 7.18338 6.38543 8.00291 6.38543ZM9.49767 17.9677H6.56644V10.3146H9.49767V17.9677ZM19.4582 17.9677H16.5128V13.7594C16.5128 13.279 16.4237 12.939 16.2461 12.7394C16.0683 12.5402 15.8186 12.4402 15.4973 12.4402C15.1419 12.4402 14.8535 12.5748 14.6328 12.844C14.4119 13.1131 14.3018 13.5958 14.3018 14.2925V17.9677H11.3703V10.3146H14.0998V11.5611C14.5077 11.0521 14.9208 10.6881 15.3385 10.4694C15.7561 10.2508 16.2648 10.1417 16.8651 10.1417C17.6767 10.1417 18.3115 10.3829 18.7702 10.8658C19.2285 11.3486 19.458 12.0944 19.458 13.1033L19.4582 17.9677Z" fill="#1C1D1F"/>
</svg>
