<svg xmlns="http://www.w3.org/2000/svg" viewBox="0 0 24 24" id="website"><g data-name="Layer 2"><path fill="#7fbde7" d="M12 10.25a37.63439 37.63439 0 01-3.90869-.2041A31.1998 31.1998 0 012.5249 8.94824a.74984.74984 0 11.43067-1.43652A29.68233 29.68233 0 008.25049 8.5542a36.13 36.13 0 007.501-.00049 29.65167 29.65167 0 005.293-1.042.74984.74984 0 11.43067 1.43652 31.16917 31.16917 0 01-5.56446 1.09717A37.56512 37.56512 0 0112 10.25zM12 16.75a37.09154 37.09154 0 01-3.73633-.18408A31.96093 31.96093 0 012.126 15.32568.75009.75009 0 112.57422 13.894a30.42325 30.42325 0 005.84521 1.18018 36.6653 36.6653 0 007.16455-.00049 30.40349 30.40349 0 005.8418-1.17969.75009.75009 0 01.44824 1.43164 31.94126 31.94126 0 01-6.13427 1.23975A37.06426 37.06426 0 0112 16.75z"></path><path fill="#232323" d="M12,22.75A10.75,10.75,0,1,1,22.75,12,10.762,10.762,0,0,1,12,22.75Zm0-20A9.25,9.25,0,1,0,21.25,12,9.26032,9.26032,0,0,0,12,2.75Z"></path><path fill="#232323" d="M12,22.25c-2.708,0-4.75-4.40674-4.75-10.25S9.292,1.75,12,1.75,16.75,6.15674,16.75,12a21.53916,21.53916,0,0,1-.35254,3.9585.75023.75023,0,0,1-1.47461-.27735A19.983,19.983,0,0,0,15.25,12c0-5.00781-1.71582-8.75-3.25-8.75S8.75,6.99219,8.75,12s1.71582,8.75,3.25,8.75c.67236,0,1.42676-.771,2.01855-2.0625a.74986.74986,0,0,1,1.36329.625C14.51416,21.20654,13.313,22.25,12,22.25Z"></path><path fill="#7fbde7" d="M12,16.75a.75.75,0,0,1,0-1.5,35.49754,35.49754,0,0,0,3.584-.17627c1.11817-.11963,2.2168-.2915,3.26221-.51074a.74983.74983,0,1,1,.30762,1.46777c-1.09424.22949-2.24268.40967-3.41406.53467A37.06426,37.06426,0,0,1,12,16.75Z"></path></g></svg>